<svg width="32" height="32" viewBox="0 0 32 32" fill="none" xmlns="http://www.w3.org/2000/svg">
  <!-- Background circle (dark) -->
  <circle cx="16" cy="16" r="16" fill="#1a1a1a"/>
  
  <!-- Outer ring -->
  <circle cx="16" cy="16" r="12" stroke="url(#silver)" stroke-width="2.5" fill="none"/>
  
  <!-- Aquarius wave symbol ♒ -->
  <path d="M8 13.5C9.5 11.5 11 13.5 12.5 11.5C14 13.5 15.5 11.5 17 13.5C18.5 11.5 20 13.5 21.5 11.5C23 13.5 24 11.5 24 11.5" stroke="url(#silver)" stroke-width="2" stroke-linecap="round" fill="none"/>
  <path d="M8 18.5C9.5 16.5 11 18.5 12.5 16.5C14 18.5 15.5 16.5 17 18.5C18.5 16.5 20 18.5 21.5 16.5C23 18.5 24 16.5 24 16.5" stroke="url(#silver)" stroke-width="2" stroke-linecap="round" fill="none"/>
  
  <!-- Diagonal line -->
  <line x1="6" y1="26" x2="26" y2="6" stroke="url(#silver)" stroke-width="2.5" stroke-linecap="round"/>
  
  <defs>
    <linearGradient id="silver" x1="0" y1="0" x2="32" y2="32">
      <stop offset="0%" stop-color="#e0e0e0"/>
      <stop offset="30%" stop-color="#a0a0a0"/>
      <stop offset="50%" stop-color="#f5f5f5"/>
      <stop offset="70%" stop-color="#909090"/>
      <stop offset="100%" stop-color="#c0c0c0"/>
    </linearGradient>
  </defs>
</svg>
